<?xml version="1.0" encoding="utf-8"?>
<!-- Generator: Adobe Illustrator 16.0.0, SVG Export Plug-In . SVG Version: 6.00 Build 0)  -->
<!DOCTYPE svg PUBLIC "-//W3C//DTD SVG 1.1//EN" "http://www.w3.org/Graphics/SVG/1.1/DTD/svg11.dtd">
<svg version="1.1" id="Layer_1" xmlns="http://www.w3.org/2000/svg" xmlns:xlink="http://www.w3.org/1999/xlink" x="0px" y="0px"
	 width="35px" height="35px" viewBox="0 0 35 35" enable-background="new 0 0 35 35" xml:space="preserve">
<g>
	<linearGradient id="SVGID_1_" gradientUnits="userSpaceOnUse" x1="0.6514" y1="17.5" x2="33.8174" y2="17.5">
		<stop  offset="0" style="stop-color:#B24BE8"/>
		<stop  offset="1" style="stop-color:#09C97F"/>
	</linearGradient>
	<circle fill-rule="evenodd" clip-rule="evenodd" fill="url(#SVGID_1_)" cx="17.234" cy="17.5" r="16.583"/>
	<g>
		<path fill-rule="evenodd" clip-rule="evenodd" fill="#FFFFFF" d="M27.925,19.341c0,0.021,0,0.046,0,0.066
			c-0.019,0.004-0.02,0.017-0.023,0.032c-0.061,0.253-0.152,0.327-0.412,0.325c-0.896-0.008-1.79,0.019-2.687,0.009
			c-0.557-0.007-1.115,0-1.673,0.002c-0.635,0.004-1.271,0.008-1.907,0.008c-0.646,0-1.294-0.006-1.94-0.006
			c-0.414-0.002-0.826,0.006-1.239,0.006c-0.45,0-0.901-0.008-1.351-0.006c-0.577,0-1.152,0.006-1.729,0.006
			c-1.476,0.001-2.954-0.003-4.431,0.004c-0.271,0.001-0.475-0.095-0.654-0.294c-1.064-1.177-2.135-2.349-3.199-3.526
			c-0.173-0.191-0.375-0.359-0.486-0.603c0-0.06,0-0.118,0-0.179c0.09-0.209,0.249-0.286,0.476-0.281
			c0.58,0.011,1.16,0.006,1.74-0.002c0.559-0.01,1.116,0.002,1.674,0c2.167-0.006,4.333-0.002,6.499-0.002c1.835,0,3.671,0,5.505,0
			c0.467,0,0.932,0.003,1.396-0.007c0.317-0.007,0.568,0.102,0.78,0.335c1.01,1.118,2.023,2.23,3.032,3.348
			C27.516,18.821,27.783,19.03,27.925,19.341z"/>
		<path fill-rule="evenodd" clip-rule="evenodd" fill="#FFFFFF" d="M14.278,27.112c-0.082,0-0.164,0-0.245,0
			c-0.029-0.035-0.069-0.021-0.104-0.021c-0.616-0.002-1.231-0.002-1.848,0c-0.035,0-0.075-0.015-0.104,0.021
			c-0.171,0-0.342,0-0.513,0c-0.021-0.031-0.053-0.021-0.082-0.021c-1.313,0-2.627,0.001-3.94,0.001
			c-0.193,0-0.387,0.001-0.581,0.001c-0.112,0.001-0.222,0.001-0.334,0.001c-0.181-0.02-0.276-0.136-0.334-0.295
			c0-0.059,0-0.118,0-0.178c0.046-0.071,0.087-0.144,0.146-0.207c1.175-1.292,2.35-2.586,3.521-3.881
			c0.191-0.211,0.416-0.33,0.706-0.313c0.151,0.009,0.305,0.004,0.457,0.004c1.574,0.004,3.147,0.007,4.722,0.008
			c0.483,0,0.967-0.005,1.45-0.008c0.996,0,1.992,0,2.989,0c0.983,0,1.964-0.001,2.945,0.003c0.442,0.001,0.884,0.021,1.326,0.009
			c0.48-0.009,0.96-0.003,1.439-0.006c0.53-0.003,1.062,0.018,1.593,0.011c0.052-0.001,0.104,0.005,0.155,0.016
			c0.171,0.037,0.229,0.18,0.282,0.322c0,0.037,0,0.074,0,0.111c-0.059,0.098-0.116,0.192-0.197,0.274
			c-0.453,0.478-0.883,0.975-1.329,1.457c-0.658,0.711-1.295,1.443-1.955,2.151c-0.195,0.209-0.347,0.488-0.674,0.539
			c-0.632,0-1.265,0-1.897,0c-0.032-0.037-0.077-0.021-0.114-0.021c-0.729-0.002-1.455-0.002-2.184,0
			c-0.038,0-0.082-0.018-0.114,0.021c-1.058,0-2.115,0-3.172,0c-0.157-0.035-0.313-0.035-0.469,0c-0.387,0-0.774,0-1.161,0
			C14.531,27.077,14.404,27.077,14.278,27.112z"/>
		<path fill-rule="evenodd" clip-rule="evenodd" fill="#FFFFFF" d="M27.925,7.906c0,0.044,0,0.088,0,0.134
			c-0.063,0.101-0.132,0.201-0.213,0.291c-0.486,0.529-0.968,1.061-1.45,1.59c-0.688,0.757-1.376,1.513-2.063,2.271
			c-0.165,0.183-0.363,0.27-0.61,0.268c-0.558-0.008-1.116-0.009-1.674-0.009c-2.448-0.001-4.897-0.001-7.346-0.001
			c-1.138,0-2.275,0-3.414,0c-0.707,0-1.413,0.002-2.12,0c-0.793-0.001-1.585-0.011-2.377-0.007
			c-0.228,0.001-0.388-0.072-0.465-0.293c0-0.059,0-0.12,0-0.179c0.029-0.055,0.058-0.111,0.101-0.159
			C7.467,10.521,8.64,9.23,9.81,7.936c0.147-0.163,0.302-0.301,0.515-0.365c0.744,0,1.489,0,2.234,0
			c0.026,0.03,0.061,0.022,0.093,0.022c0.459,0,0.918,0.001,1.377,0c0.031,0,0.068,0.013,0.092-0.022c0.67,0,1.34,0,2.01,0
			c0.021,0.031,0.053,0.022,0.081,0.022c0.371,0,0.74,0,1.11,0c0.03,0,0.06,0.005,0.083-0.022c0.335,0,0.669,0,1.005,0
			c0.031,0.036,0.076,0.022,0.115,0.022c0.698,0.001,1.396,0.001,2.093,0c0.039,0,0.082,0.018,0.114-0.022c0.038,0,0.075,0,0.112,0
			c0.021,0.031,0.053,0.022,0.081,0.022c1.418,0,2.835-0.001,4.254-0.001c0.303,0,0.607,0.002,0.912,0.001
			c0.492-0.001,0.985-0.002,1.478-0.003c0.095,0.007,0.175,0.046,0.243,0.112C27.872,7.759,27.878,7.843,27.925,7.906z"/>
		<path fill-rule="evenodd" clip-rule="evenodd" fill="#FFFFFF" d="M25.18,7.592c-1.419,0-2.836,0.001-4.254,0.001
			c-0.028,0-0.061,0.009-0.081-0.022c1.443,0,2.889,0,4.333,0C25.177,7.578,25.177,7.584,25.18,7.592z"/>
		<path fill-rule="evenodd" clip-rule="evenodd" fill="#FFFFFF" d="M7.442,27.093c1.313,0,2.627-0.001,3.94-0.001
			c0.029,0,0.061-0.011,0.082,0.021c-1.34,0-2.68,0-4.021,0C7.445,27.105,7.445,27.099,7.442,27.093z"/>
		<path fill-rule="evenodd" clip-rule="evenodd" fill="#FFFFFF" d="M19.46,27.112c0.032-0.038,0.076-0.021,0.114-0.021
			c0.729-0.002,1.455-0.002,2.184,0c0.037,0,0.082-0.017,0.114,0.021C21.067,27.112,20.264,27.112,19.46,27.112z"/>
		<path fill-rule="evenodd" clip-rule="evenodd" fill="#FFFFFF" d="M25.18,7.592c-0.003-0.007-0.003-0.014-0.002-0.021
			c0.795,0,1.594,0,2.39,0c0.003,0.006,0.005,0.011,0.002,0.019c-0.492,0.001-0.985,0.002-1.478,0.003
			C25.787,7.594,25.482,7.592,25.18,7.592z"/>
		<path fill-rule="evenodd" clip-rule="evenodd" fill="#FFFFFF" d="M20.732,7.571c-0.032,0.04-0.075,0.022-0.114,0.022
			c-0.697,0.001-1.395,0.001-2.093,0c-0.039,0-0.084,0.014-0.115-0.022C19.185,7.571,19.958,7.571,20.732,7.571z"/>
		<path fill-rule="evenodd" clip-rule="evenodd" fill="#FFFFFF" d="M11.977,27.112c0.029-0.035,0.069-0.021,0.104-0.021
			c0.617-0.002,1.232-0.002,1.848,0c0.035,0,0.075-0.015,0.104,0.021C13.347,27.112,12.663,27.112,11.977,27.112z"/>
		<path fill-rule="evenodd" clip-rule="evenodd" fill="#FFFFFF" d="M14.121,7.571c-0.023,0.035-0.061,0.022-0.092,0.022
			c-0.459,0.001-0.918,0-1.377,0c-0.032,0-0.067,0.008-0.093-0.022C13.08,7.571,13.601,7.571,14.121,7.571z"/>
		<path fill-rule="evenodd" clip-rule="evenodd" fill="#FFFFFF" d="M17.405,7.571c-0.023,0.027-0.053,0.022-0.083,0.022
			c-0.37,0-0.739,0-1.11,0c-0.028,0-0.061,0.009-0.081-0.022C16.556,7.571,16.98,7.571,17.405,7.571z"/>
		<path fill-rule="evenodd" clip-rule="evenodd" fill="#FFFFFF" d="M7.442,27.093c0.003,0.006,0.003,0.013,0.002,0.02
			c-0.194,0-0.387,0-0.581,0c-0.001-0.006-0.001-0.011-0.002-0.019C7.055,27.094,7.249,27.093,7.442,27.093z"/>
		<path fill-rule="evenodd" clip-rule="evenodd" fill="#FFFFFF" d="M15.819,27.112c0.157-0.035,0.313-0.035,0.469,0
			C16.131,27.112,15.976,27.112,15.819,27.112z"/>
		<path fill-rule="evenodd" clip-rule="evenodd" fill="#FFFFFF" d="M14.278,27.112c0.126-0.035,0.253-0.035,0.38,0
			C14.531,27.112,14.404,27.112,14.278,27.112z"/>
	</g>
</g>
</svg>
